<?xml version="1.0" encoding="UTF-8"?>
<svg width="28px" height="22px" viewBox="0 0 28 22" version="1.1" xmlns="http://www.w3.org/2000/svg" xmlns:xlink="http://www.w3.org/1999/xlink">
    <!-- Generator: Sketch 46.2 (44496) - http://www.bohemiancoding.com/sketch -->
    <title>Triangle</title>
    <desc>Created with Sketch.</desc>
    <defs></defs>
    <g id="Page-1" stroke="none" stroke-width="1" fill="none" fill-rule="evenodd" fill-opacity="0.7">
        <g id="Artboard-3" transform="translate(-267.000000, -271.000000)" fill="#FFFFFF">
            <path d="M282.675221,272.568672 L293.983129,289.907464 C294.58652,290.832664 294.325642,292.07183 293.400443,292.675221 C293.075475,292.887157 292.695879,293 292.307908,293 L269.692092,293 C268.587523,293 267.692092,292.104569 267.692092,291 C267.692092,290.612029 267.804935,290.232433 268.016871,289.907464 L279.324779,272.568672 L279.324779,272.568672 C279.92817,271.643473 281.167336,271.382596 282.092536,271.985987 C282.325105,272.137663 282.523545,272.336103 282.675221,272.568672 Z M281,276 C280.447715,276 280,276.447715 280,277 L280,284 C280,284.552285 280.447715,285 281,285 C281.552285,285 282,284.552285 282,284 L282,277 C282,276.447715 281.552285,276 281,276 Z M281,287 C280.447715,287 280,287.447715 280,288 L280,289 C280,289.552285 280.447715,290 281,290 C281.552285,290 282,289.552285 282,289 L282,288 C282,287.447715 281.552285,287 281,287 Z" id="Triangle"></path>
        </g>
    </g>
</svg>